<?xml version="1.0" encoding="utf-8" standalone="no"?>
<!DOCTYPE svg PUBLIC "-//W3C//DTD SVG 1.1//EN"
  "http://www.w3.org/Graphics/SVG/1.1/DTD/svg11.dtd">
<!-- Created with matplotlib (http://matplotlib.org/) -->
<svg height="403pt" version="1.1" viewBox="0 0 512 403" width="512pt" xmlns="http://www.w3.org/2000/svg" xmlns:xlink="http://www.w3.org/1999/xlink">
 <defs>
  <style type="text/css">
*{stroke-linecap:square;stroke-linejoin:round;}
  </style>
 </defs>
 <g id="figure_1">
  <g id="patch_1">
   <path d="
M0 403.307
L512.344 403.307
L512.344 0
L0 0
z
" style="fill:none;"/>
  </g>
  <g id="axes_1">
   <g id="patch_2">
    <path d="
M48.1294 368.742
L494.529 368.742
L494.529 23.1417
L48.1294 23.1417
z
" style="fill:#ffffff;"/>
   </g>
   <g id="line2d_1">
    <path clip-path="url(#p900992f6f0)" d="
M48.1294 90.0485
L50.3614 89.2071
L52.5934 91.1202
L54.8254 98.1165
L57.0574 132.369
L59.2894 144.813
L61.5214 165.682
L63.7534 176.684
L65.9854 176.39
L68.2174 178.123
L70.4494 177.621
L72.6814 177.382
L74.9134 180.75
L77.1454 176.597
L79.3774 174.243
L81.6094 164.958
L83.8414 167.091
L86.0734 167.604
L88.3054 167.957
L90.5374 164.238
L92.7694 166.277
L95.0014 173.999
L97.2334 176.205
L99.4654 168.289
L101.697 162.803
L103.929 141.614
L106.161 124.792
L108.393 111.579
L110.625 157.483
L112.857 184.103
L115.089 199.944
L117.321 186.549
L119.553 188.382
L121.785 206.518
L124.017 226.952
L128.481 215.904
L130.713 215.391
L132.945 213.773
L135.177 210.438
L137.409 206.348
L139.641 205.621
L141.873 202.192
L144.105 200.514
L146.337 194.497
L148.569 182.456
L150.801 167.736
L153.033 167.126
L157.497 179.022
L159.729 180.707
L161.961 180.03
L164.193 195.843
L166.425 202.341
L168.657 196.281
L170.889 181.522
L173.121 182.055
L175.353 185.797
L177.585 195.443
L179.817 198.645
L182.049 228.016
L184.281 246.081
L186.513 244.092
L188.745 231.167
L190.977 214.965
L193.209 201.709
L195.441 164.665
L197.673 137.387
L199.905 106.063
L202.137 122.267
L204.369 139.509
L206.601 161.004
L208.833 161.796
L211.065 162.048
L213.297 162.579
L222.225 160.692
L224.457 163.331
L226.689 165.424
L228.921 178.343
L231.153 178.029
L233.385 179.411
L235.617 181.404
L237.849 177.571
L240.081 178.251
L242.313 173.968
L244.545 168.635
L246.777 158.665
L249.009 137.11
L251.241 125.846
L253.473 91.0622
L255.705 90.2376
L257.937 89.7662
L260.169 90.4265
L262.401 90.0638
L266.865 88.4273
L269.097 89.8854
L271.329 125.476
L273.561 138.684
L275.793 167.785
L278.025 181.923
L280.257 192.539
L282.489 205.799
L284.721 210.994
L286.953 223.01
L289.185 234.302
L291.417 240.773
L293.649 256.872
L295.881 256.625
L298.113 262.053
L300.345 264.784
L302.577 261.966
L304.809 259.398
L307.041 255.756
L309.273 265.512
L311.505 270.588
L313.737 262.94
L315.969 257.575
L318.201 236.568
L320.433 224.876
L322.665 220.745
L324.897 252.995
L327.129 276.108
L329.361 290.134
L331.593 275.925
L333.825 273.458
L336.057 275.457
L338.289 276.075
L340.521 277.371
L342.753 272.652
L344.985 267.135
L347.217 260.107
L349.449 221.812
L351.681 230.985
L353.913 213.49
L356.145 184.692
L358.377 179.721
L360.609 177.977
L362.841 175.001
L365.073 166.852
L367.305 163.802
L369.537 163.358
L371.769 166.565
L374.001 175.084
L376.233 179.61
L378.465 184.896
L380.697 194.131
L382.929 203.872
L385.161 208.695
L387.393 224.624
L389.625 253.29
L391.857 269.915
L394.089 261.326
L396.321 240.698
L398.553 209.827
L400.785 202.112
L403.017 201.673
L405.249 196.577
L407.481 204.496
L409.713 190.629
L411.945 166.201
L414.177 137.946
L416.409 177.599
L418.641 225.025
L420.873 253.096
L423.105 249.66
L425.337 229.936
L427.569 211.736
L429.801 202.607
L432.033 204.041
L434.265 207.89
L436.497 215.962
L438.729 222.28
L440.961 219.111
L443.193 225.556
L445.425 226.662
L447.657 231.642
L449.889 232.268
L452.121 231.493
L454.353 225.363
L456.585 240.818
L458.817 242.456
L461.049 215.499
L463.281 146.764
L465.513 125.609
L467.745 90.0391
L469.977 88.7247
L472.209 89.7159
L474.441 90.4768
L474.441 90.4768" style="fill:none;stroke:#0000ff;"/>
   </g>
   <g id="line2d_2">
    <path clip-path="url(#p900992f6f0)" d="
M48.1294 178.562
L50.3614 177.775
L52.5934 179.553
L54.8254 183.852
L57.0574 186.287
L59.2894 192.339
L61.5214 206.711
L63.7534 213.893
L65.9854 213.466
L68.2174 215.762
L70.4494 215.338
L72.6814 215.38
L74.9134 218.829
L77.1454 216.406
L79.3774 214.704
L81.6094 214.108
L83.8414 217.395
L86.0734 220.056
L88.3054 219.881
L90.5374 214.876
L92.7694 216.393
L95.0014 223.397
L97.2334 224.877
L99.4654 216.791
L101.697 211.397
L103.929 201.922
L106.161 190.931
L108.393 184.922
L110.625 205.347
L112.857 217.794
L115.089 220.545
L117.321 206.613
L119.553 203.382
L121.785 221.318
L124.017 241.755
L126.249 235.862
L128.481 230.824
L130.713 230.815
L132.945 231.778
L135.177 231.894
L137.409 229.107
L139.641 228.512
L141.873 227.257
L144.105 225.472
L146.337 221.802
L148.569 212.655
L150.801 201.908
L153.033 202.83
L155.265 209.051
L157.497 213.302
L159.729 210.713
L161.961 207.353
L164.193 220.582
L166.425 226.95
L168.657 219.277
L170.889 204.146
L173.121 203.472
L175.353 203.503
L177.585 210.798
L179.817 213.468
L182.049 242.359
L184.281 260.598
L186.513 258.971
L188.745 246.443
L190.977 234.935
L193.209 222.415
L195.441 198.35
L197.673 185.334
L199.905 179.415
L202.137 188.381
L204.369 199.721
L206.601 209.514
L208.833 210.335
L211.065 210.649
L213.297 211.572
L217.761 212.256
L219.993 212.825
L224.457 213.376
L226.689 214.746
L228.921 218.581
L233.385 217.371
L235.617 219.249
L237.849 215.283
L240.081 215.914
L242.313 211.124
L244.545 205.874
L246.777 199.759
L249.009 184.426
L251.241 179.387
L253.473 176.656
L255.705 178.718
L257.937 178.152
L260.169 178.621
L262.401 178.67
L269.097 175.758
L271.329 179.341
L273.561 186.103
L275.793 208.606
L278.025 219.46
L280.257 229.704
L282.489 243.193
L284.721 248.929
L286.953 261.054
L289.185 274.421
L291.417 283.275
L293.649 300.21
L295.881 309.846
L298.113 315.365
L300.345 320.202
L302.577 311.281
L304.809 308.591
L307.041 303.591
L309.273 311.857
L311.505 316.478
L313.737 308.782
L315.969 308.693
L318.201 299.815
L320.433 293.871
L322.665 297.016
L324.897 304.17
L327.129 312.76
L329.361 309.005
L331.593 295.393
L333.825 287.128
L336.057 288.419
L338.289 288.779
L340.521 289.71
L342.753 289.686
L344.985 284.406
L347.217 280.129
L349.449 244.592
L351.681 255.54
L353.913 237.749
L356.145 209.09
L358.377 204.165
L360.609 205.002
L362.841 204.947
L365.073 200.729
L367.305 199.217
L369.537 199.41
L371.769 201.084
L374.001 205.628
L376.233 207.516
L378.465 210.524
L380.697 219.831
L382.929 226.714
L385.161 230.753
L387.393 245.177
L389.625 270.099
L391.857 283.922
L394.089 274.361
L396.321 256.365
L398.553 224.996
L400.785 217.389
L403.017 217.444
L405.249 217.087
L407.481 226.002
L409.713 223.844
L411.945 213.658
L414.177 211.13
L416.409 242.907
L418.641 284.167
L420.873 300.47
L423.105 297.81
L425.337 278.393
L427.569 260.856
L429.801 252.531
L432.033 254.68
L434.265 259.093
L436.497 268.528
L438.729 272.688
L440.961 268.226
L443.193 265.958
L445.425 266.716
L447.657 269.435
L449.889 271.844
L452.121 270.852
L454.353 264.456
L456.585 279.833
L458.817 282.051
L461.049 258.285
L463.281 193.73
L465.513 179.195
L467.745 175.691
L472.209 177.903
L474.441 178.909
L474.441 178.909" style="fill:none;stroke:#008000;"/>
   </g>
   <g id="line2d_3">
    <path clip-path="url(#p900992f6f0)" d="
M48.1294 73.5074
L50.3614 73.7818
L52.5934 75.832
L54.8254 80.6891
L57.0574 117.846
L59.2894 131.643
L61.5214 151.086
L63.7534 161.705
L65.9854 161.544
L68.2174 162.847
L70.4494 162.374
L72.6814 162.771
L74.9134 166.256
L79.3774 161.485
L81.6094 153.642
L83.8414 156.588
L86.0734 154.738
L88.3054 155.386
L90.5374 154.47
L92.7694 157.146
L95.0014 164.999
L97.2334 166.736
L99.4654 159.882
L101.697 154.603
L103.929 129.984
L106.161 112.363
L108.393 103.789
L110.625 155.317
L112.857 182.969
L115.089 194.952
L117.321 184.928
L119.553 187.856
L121.785 210.369
L124.017 230.582
L126.249 225.917
L128.481 220.699
L130.713 220.156
L132.945 217.885
L135.177 215.115
L137.409 209.763
L139.641 208.978
L141.873 202.594
L144.105 201.014
L146.337 193.673
L148.569 175.694
L150.801 161.373
L153.033 160.727
L157.497 173.093
L159.729 173.895
L161.961 179.206
L164.193 196.208
L166.425 202.609
L168.657 199.57
L170.889 185.067
L173.121 186.754
L175.353 189.938
L177.585 200.196
L179.817 203.489
L182.049 232.467
L184.281 249.635
L186.513 248.024
L193.209 196.866
L195.441 163.406
L197.673 135.251
L199.905 98.1593
L202.137 109.428
L204.369 127.778
L206.601 152.956
L208.833 153.581
L211.065 152.691
L213.297 153.431
L215.529 153.055
L217.761 152.027
L219.993 148.449
L222.225 147.856
L224.457 152.637
L226.689 154.156
L228.921 165.482
L231.153 165.277
L233.385 164.89
L235.617 166.622
L237.849 162.367
L240.081 162.918
L242.313 159.058
L244.545 153.658
L246.777 144.193
L249.009 123.877
L251.241 111.235
L253.473 73.8309
L255.705 75.1092
L257.937 74.1614
L260.169 73.6002
L262.401 73.587
L264.633 73.8543
L266.865 72.9567
L269.097 72.6639
L271.329 110.965
L273.561 125.443
L275.793 153.111
L278.025 166.974
L280.257 177.437
L282.489 190.419
L284.721 195.916
L289.185 221.963
L291.417 230.175
L293.649 247.236
L295.881 248.507
L298.113 255.668
L300.345 255.439
L302.577 247.074
L304.809 247.513
L307.041 245.55
L309.273 252.927
L311.505 256.978
L313.737 251.338
L315.969 250.89
L318.201 226.39
L320.433 213.358
L322.665 214.737
L324.897 252.538
L327.129 277.005
L329.361 284.032
L331.593 272.864
L333.825 271.708
L336.057 278.266
L338.289 277.994
L340.521 279.61
L342.753 279.004
L344.985 273.16
L347.217 265.947
L349.449 227.073
L351.681 235.715
L353.913 218.13
L356.145 184.84
L358.377 179.736
L360.609 176.853
L362.841 167.916
L365.073 159.965
L367.305 156.907
L369.537 157.224
L371.769 160.639
L374.001 168.607
L376.233 179.217
L378.465 185.815
L380.697 195.167
L382.929 206.708
L385.161 211.496
L387.393 228.591
L389.625 256.276
L391.857 271.803
L394.089 264.264
L396.321 246.045
L398.553 213.843
L400.785 206.336
L403.017 201.403
L405.249 195.098
L407.481 199.708
L409.713 189.263
L411.945 163.766
L414.177 130.17
L416.409 164.247
L418.641 212.344
L420.873 243.887
L423.105 241.182
L425.337 219.886
L427.569 202.297
L429.801 193.181
L432.033 193.899
L434.265 194.498
L436.497 203.7
L438.729 212.04
L440.961 208.073
L443.193 212.877
L445.425 214.111
L447.657 216.961
L449.889 218.686
L452.121 217.457
L454.353 211.148
L456.585 226.701
L458.817 229.277
L461.049 202.228
L463.281 133.173
L465.513 110.781
L467.745 72.6319
L469.977 73.0906
L472.209 73.8792
L474.441 73.7071
L474.441 73.7071" style="fill:none;stroke:#ff0000;"/>
   </g>
   <g id="line2d_4">
    <path clip-path="url(#p900992f6f0)" d="
M48.1294 78.3889
L50.3614 77.4706
L52.5934 79.5065
L54.8254 84.6277
L57.0574 124.805
L59.2894 136.877
L61.5214 157.175
L63.7534 166.297
L65.9854 166.985
L68.2174 168.508
L70.4494 168.821
L72.6814 168.613
L74.9134 171.872
L77.1454 169.41
L79.3774 166.322
L81.6094 156.902
L83.8414 159.97
L86.0734 158.575
L88.3054 160.315
L90.5374 160.512
L92.7694 163.71
L95.0014 172.226
L97.2334 174.075
L99.4654 166.007
L101.697 160.614
L103.929 139.496
L106.161 121.506
L108.393 108.496
L110.625 163.561
L112.857 187.675
L115.089 198.859
L117.321 186.383
L119.553 188.6
L121.785 207.099
L124.017 229.526
L126.249 225.037
L128.481 218.693
L130.713 217.803
L132.945 216.121
L135.177 213.449
L137.409 208.095
L139.641 206.965
L141.873 202.891
L144.105 201.312
L146.337 192.279
L148.569 179.535
L150.801 165.902
L153.033 164.775
L157.497 177.476
L159.729 177.517
L161.961 177.921
L164.193 196.089
L166.425 202.565
L168.657 197.918
L170.889 183.341
L173.121 184.955
L175.353 188.387
L177.585 197.908
L179.817 201.451
L182.049 231.274
L184.281 248.578
L186.513 244.527
L188.745 231.632
L190.977 214.856
L193.209 200.534
L195.441 168.173
L197.673 143.515
L199.905 102.87
L202.137 118.821
L204.369 137.349
L206.601 158.936
L208.833 159.545
L211.065 159.755
L213.297 160.773
L215.529 159.638
L217.761 157.75
L219.993 153.292
L222.225 151.719
L224.457 156.031
L226.689 157.517
L228.921 170.387
L231.153 170.907
L233.385 170.224
L235.617 172.436
L237.849 168.729
L240.081 168.727
L242.313 164.528
L244.545 158.239
L246.777 150.298
L249.009 129.177
L251.241 118.372
L253.473 77.6936
L255.705 78.6848
L257.937 77.8234
L260.169 78.5359
L262.401 78.4243
L264.633 77.461
L266.865 76.6724
L269.097 76.6481
L271.329 118.036
L273.561 130.751
L275.793 159.23
L278.025 171.736
L280.257 183.018
L282.489 195.98
L284.721 202.119
L286.953 214.481
L289.185 225.344
L291.417 235.487
L293.649 250.329
L295.881 249.137
L298.113 255.653
L300.345 257.32
L302.577 252.008
L304.809 254.247
L307.041 250.772
L309.273 260.988
L311.505 263.747
L313.737 257.129
L315.969 255.126
L318.201 236.81
L320.433 221.772
L322.665 216.855
L324.897 258.652
L327.129 279.5
L329.361 286.851
L331.593 274.213
L333.825 272.52
L336.057 274.208
L338.289 276.884
L340.521 278.662
L342.753 275.706
L344.985 270.213
L347.217 263.006
L349.449 224.656
L351.681 233.196
L353.913 215.537
L356.145 184.89
L360.609 175.343
L362.841 171.553
L365.073 164.525
L367.305 161.126
L369.537 161.025
L371.769 164.943
L374.001 171.71
L376.233 177.402
L378.465 185.476
L380.697 194.382
L382.929 204.729
L385.161 209.771
L387.393 226.545
L389.625 254.693
L391.857 269.7
L394.089 262.018
L396.321 244.266
L398.553 212.446
L400.785 202.748
L403.017 201.868
L405.249 196.579
L407.481 203.313
L409.713 193.851
L411.945 171.942
L414.177 134.722
L416.409 173.541
L418.641 221.652
L420.873 249.991
L423.105 246.655
L425.337 227.465
L427.569 209.5
L429.801 199.407
L432.033 199.515
L434.265 199.235
L438.729 214.7
L440.961 210.834
L443.193 217.23
L445.425 219.311
L447.657 221.989
L449.889 223.648
L452.121 223.651
L454.353 215.934
L456.585 231.091
L458.817 232.202
L461.049 207.008
L463.281 138.328
L465.513 117.89
L467.745 76.6578
L469.977 76.6946
L474.441 78.5657
L474.441 78.5657" style="fill:none;stroke:#00bfbf;"/>
   </g>
   <g id="line2d_5">
    <path clip-path="url(#p900992f6f0)" d="
M48.1294 178.148
L50.3614 176.821
L52.5934 178.711
L57.0574 187.077
L59.2894 194.125
L61.5214 209.229
L63.7534 216.887
L65.9854 216.616
L68.2174 218.398
L70.4494 217.929
L72.6814 217.915
L74.9134 221.547
L77.1454 219.105
L79.3774 217.357
L81.6094 216.785
L83.8414 219.881
L86.0734 222.499
L88.3054 222.289
L90.5374 217.87
L92.7694 219.382
L95.0014 226.556
L97.2334 228.454
L99.4654 220.264
L101.697 214.497
L103.929 204.648
L106.161 192.754
L108.393 186.888
L110.625 208.467
L112.857 221.963
L115.089 224.745
L117.321 210.041
L119.553 207.498
L121.785 225.031
L124.017 245.098
L126.249 239.582
L128.481 234.374
L130.713 234.264
L132.945 234.845
L135.177 234.798
L137.409 231.526
L139.641 231.156
L141.873 229.677
L144.105 227.704
L146.337 223.567
L148.569 214.027
L150.801 202.653
L153.033 203.325
L155.265 209.517
L157.497 214.236
L159.729 212.282
L161.961 209.103
L164.193 223.132
L166.425 229.529
L168.657 221.983
L170.889 206.877
L173.121 206.365
L175.353 206.717
L177.585 214.394
L179.817 217.439
L182.049 246.022
L184.281 264.387
L186.513 262.473
L193.209 226.725
L195.441 202.217
L197.673 188.143
L199.905 181.04
L202.137 190.045
L204.369 202.293
L206.601 212.706
L208.833 213.618
L211.065 214.026
L213.297 214.779
L215.529 215.19
L217.761 215.328
L219.993 215.331
L224.457 216.053
L226.689 217.395
L228.921 221.417
L233.385 220.041
L235.617 221.777
L237.849 217.957
L240.081 218.495
L242.313 214.036
L244.545 208.803
L246.777 202.531
L249.009 186.299
L251.241 180.372
L253.473 176.052
L255.705 178.036
L257.937 177.268
L260.169 177.904
L262.401 177.76
L266.865 175.969
L269.097 174.936
L271.329 180.141
L273.561 187.776
L275.793 211.374
L280.257 232.704
L282.489 245.956
L284.721 252.009
L289.185 275.228
L291.417 283.859
L293.649 300.735
L295.881 309.568
L298.113 315.181
L300.345 319.521
L302.577 315.228
L304.809 313.552
L307.041 308.198
L309.273 315.867
L311.505 320.944
L313.737 311.849
L315.969 309.576
L318.201 300.213
L320.433 293.474
L322.665 295.555
L324.897 303.899
L327.129 314.044
L329.361 314.411
L331.593 300.525
L333.825 292.461
L336.057 293.732
L338.289 293.555
L340.521 293.494
L342.753 291.546
L344.985 286.422
L347.217 282.136
L349.449 246.347
L351.681 257.749
L353.913 240.019
L356.145 211.836
L358.377 206.83
L360.609 206.797
L362.841 206.417
L365.073 201.623
L367.305 199.794
L369.537 199.645
L371.769 201.834
L374.001 206.632
L376.233 208.798
L378.465 212.415
L380.697 221.71
L382.929 229.12
L385.161 233.478
L387.393 248.317
L389.625 274.078
L391.857 287.501
L394.089 278.167
L396.321 258.753
L398.553 228.154
L400.785 220.763
L403.017 220.817
L405.249 220.149
L407.481 229.383
L409.713 227.984
L411.945 217.104
L414.177 213.027
L416.409 245.437
L418.641 287.133
L420.873 304.403
L423.105 301.116
L425.337 281.466
L427.569 263.524
L429.801 255.24
L432.033 257.152
L434.265 261.044
L436.497 271.014
L438.729 275.34
L440.961 271.208
L443.193 268.784
L445.425 269.152
L447.657 272.078
L449.889 272.589
L452.121 271.57
L454.353 265.502
L456.585 280.404
L458.817 282.672
L461.049 259.246
L463.281 195.562
L465.513 180.042
L467.745 174.872
L474.441 178.081
L474.441 178.081" style="fill:none;stroke:#bf00bf;"/>
   </g>
   <g id="line2d_6">
    <path clip-path="url(#p900992f6f0)" d="
M48.1294 59.0749
L50.3614 58.1767
L52.5934 60.1942
L54.8254 67.7774
L57.0574 111.213
L59.2894 126.164
L61.5214 149.398
L63.7534 158.26
L65.9854 158.115
L68.2174 159.803
L70.4494 159.209
L72.6814 159.13
L74.9134 162.709
L77.1454 160.314
L79.3774 158.327
L81.6094 149.263
L83.8414 151.597
L86.0734 149.341
L88.3054 147.447
L90.5374 148.765
L92.7694 153.444
L95.0014 161.382
L97.2334 163.366
L99.4654 155.302
L101.697 149.789
L103.929 125.257
L106.161 108.488
L108.393 98.806
L110.625 151.558
L112.857 179.865
L115.089 193.393
L117.321 188.938
L119.553 192.307
L121.785 210.304
L124.017 230.537
L128.481 218.587
L130.713 217.873
L132.945 216.515
L135.177 213.693
L137.409 209.102
L139.641 208.246
L141.873 203.532
L144.105 201.59
L146.337 192.789
L150.801 168.3
L153.033 167.536
L157.497 179.893
L159.729 178.923
L161.961 178.372
L164.193 196.829
L166.425 203.396
L168.657 199.212
L170.889 184.597
L173.121 185.304
L175.353 188.829
L177.585 198.027
L179.817 201.688
L182.049 230.903
L184.281 249.582
L186.513 247.661
L188.745 235.123
L190.977 217.145
L193.209 195.047
L195.441 160.22
L197.673 131.409
L199.905 93.0806
L202.137 105.89
L204.369 123.134
L206.601 148.143
L208.833 148.937
L211.065 149.181
L213.297 149.912
L215.529 149.422
L217.761 146.219
L219.993 140.698
L222.225 142.637
L224.457 147.643
L226.689 149.983
L228.921 162.469
L233.385 161.246
L235.617 163.199
L237.849 159.222
L240.081 160.049
L242.313 155.758
L244.545 150.285
L246.777 142.543
L249.009 118.434
L251.241 104.458
L253.473 60.75
L255.705 59.3845
L257.937 58.6605
L260.169 59.199
L262.401 59.0424
L266.865 57.3348
L269.097 59.5809
L271.329 104.32
L273.561 119.876
L275.793 151.358
L278.025 163.728
L280.257 174.261
L282.489 187.455
L284.721 192.682
L289.185 217.269
L291.417 225.713
L293.649 241.991
L295.881 242.751
L298.113 247.92
L300.345 248.389
L302.577 239.162
L304.809 242.877
L307.041 240.707
L309.273 249.104
L311.505 254.152
L313.737 246.686
L315.969 245.367
L318.201 221.319
L320.433 210.431
L322.665 207.195
L324.897 246.986
L327.129 272.208
L329.361 282.499
L331.593 278.699
L333.825 276.807
L336.057 278.251
L340.521 279.356
L342.753 275.352
L344.985 269.911
L347.217 263.595
L349.449 224.906
L351.681 234.208
L353.913 216.887
L356.145 185.712
L358.377 180.548
L360.609 175.764
L362.841 172.96
L365.073 166.92
L367.305 163.923
L369.537 163.889
L371.769 166.862
L374.001 173.41
L376.233 178.056
L378.465 186.064
L380.697 195.33
L382.929 206.893
L385.161 211.052
L387.393 227.338
L389.625 255.793
L391.857 270.855
L394.089 263.696
L396.321 244.044
L398.553 213.61
L400.785 206.072
L403.017 205.781
L405.249 198.714
L407.481 198.046
L409.713 185.944
L411.945 160.008
L414.177 124.898
L416.409 160.635
L418.641 207.629
L420.873 239.466
L423.105 236.141
L425.337 216.554
L427.569 199.095
L429.801 189.328
L432.033 188.022
L434.265 186.489
L436.497 198.127
L438.729 206.3
L440.961 203.252
L443.193 209.348
L445.425 210.374
L447.657 213.177
L449.889 214.393
L452.121 214.207
L454.353 207.411
L456.585 222.487
L458.817 224.693
L461.049 199.326
L463.281 127.46
L465.513 104.159
L467.745 59.6677
L469.977 57.5707
L472.209 58.4732
L474.441 59.2122
L474.441 59.2122" style="fill:none;stroke:#bfbf00;"/>
   </g>
   <g id="line2d_7">
    <path clip-path="url(#p900992f6f0)" d="
M48.1294 92.7847
L50.3614 91.89
L52.5934 93.8515
L54.8254 99.5126
L57.0574 132.657
L59.2894 146.391
L61.5214 165.33
L63.7534 176.398
L65.9854 176.572
L68.2174 177.648
L70.4494 177.185
L72.6814 177.123
L74.9134 180.699
L79.3774 175.525
L81.6094 167.229
L83.8414 169.906
L86.0734 168.513
L88.3054 167.84
L90.5374 166.908
L92.7694 169.025
L95.0014 176.514
L97.2334 178.526
L99.4654 170.707
L101.697 164.598
L103.929 142.023
L106.161 125.214
L108.393 116.547
L110.625 161.564
L112.857 190.425
L115.089 201.799
L117.321 191.955
L119.553 193.538
L121.785 211.722
L124.017 232.339
L126.249 226.413
L128.481 221.074
L130.713 220.827
L132.945 219.765
L135.177 218.026
L137.409 213.191
L139.641 212.153
L141.873 208.183
L144.105 205.966
L146.337 197.891
L148.569 185.185
L150.801 168.197
L153.033 167.159
L157.497 179.767
L159.729 183.383
L161.961 183.418
L164.193 201.425
L166.425 208.165
L168.657 202.938
L170.889 188.276
L173.121 189.583
L175.353 191.793
L177.585 200.793
L179.817 203.918
L182.049 233.078
L184.281 251.892
L186.513 249.346
L188.745 236.702
L190.977 220.772
L193.209 203.64
L195.441 170.647
L199.905 110.857
L202.137 122.454
L204.369 139.566
L206.601 162.91
L208.833 164.233
L211.065 164.133
L213.297 164.937
L215.529 164.683
L217.761 164.255
L219.993 161.079
L222.225 161.763
L224.457 165.912
L226.689 167.906
L228.921 179.411
L231.153 179.69
L233.385 179.197
L235.617 181.147
L237.849 177.238
L240.081 177.832
L242.313 174.187
L244.545 168.816
L246.777 158.445
L249.009 138.696
L251.241 126
L253.473 92.6649
L255.705 93.1882
L257.937 92.5202
L260.169 92.9132
L262.401 92.9738
L264.633 91.9066
L266.865 91.0658
L269.097 91.5676
L271.329 125.758
L273.561 140.097
L275.793 167.213
L278.025 182.131
L280.257 192.43
L282.489 205.174
L284.721 210.657
L286.953 222.592
L289.185 233.899
L291.417 242.246
L293.649 258.426
L295.881 259.449
L298.113 264.8
L300.345 265.092
L302.577 258.786
L304.809 259.64
L307.041 255.939
L309.273 263.609
L311.505 267.949
L313.737 261.823
L315.969 259.017
L318.201 236.34
L320.433 225.577
L322.665 224.298
L324.897 256.41
L327.129 282.041
L329.361 289.74
L331.593 280.773
L333.825 277.113
L336.057 278.854
L338.289 279.681
L340.521 279.986
L342.753 277.632
L347.217 266.965
L349.449 229.408
L351.681 238.131
L353.913 220.437
L356.145 190.177
L358.377 185.068
L360.609 181.122
L362.841 177.418
L365.073 166.869
L367.305 163.653
L369.537 163.555
L371.769 167.176
L374.001 177.756
L376.233 183.097
L378.465 190.752
L380.697 199.915
L382.929 210.028
L385.161 214.847
L387.393 231.997
L389.625 258.073
L391.857 273.08
L394.089 264.761
L396.321 245.592
L398.553 215.064
L400.785 207.272
L403.017 206.696
L405.249 202.008
L407.481 206.028
L409.713 196.381
L414.177 142.454
L416.409 177.554
L418.641 224.006
L420.873 254.099
L423.105 251.512
L425.337 231.616
L427.569 213.958
L429.801 204.8
L432.033 205.991
L434.265 206.821
L436.497 216.844
L438.729 224.702
L440.961 221.303
L443.193 226.564
L445.425 228.168
L447.657 231.032
L449.889 231.947
L452.121 231.162
L454.353 225.563
L456.585 240.519
L458.817 242.413
L461.049 215.666
L463.281 147.997
L465.513 125.585
L467.745 91.5462
L469.977 91.1582
L472.209 92.032
L474.441 93.0632
L474.441 93.0632" style="fill:none;stroke:#000000;"/>
   </g>
   <g id="line2d_8">
    <path clip-path="url(#p900992f6f0)" d="
M48.1294 351.875
L50.3614 351.801
L52.5934 343.966
L54.8254 328.908
L57.0574 332.591
L59.2894 329.47
L61.5214 330.744
L63.7534 327.23
L65.9854 344.654
L68.2174 353.527
L70.4494 353.429
L72.6814 353.666
L74.9134 342.097
L77.1454 348.539
L79.3774 353.894
L81.6094 353.625
L86.0734 336.153
L88.3054 334.385
L90.5374 345.981
L92.7694 341.411
L95.0014 320.053
L97.2334 310.893
L99.4654 332.904
L101.697 344.316
L103.929 341.666
L106.161 340.345
L108.393 333.402
L110.625 291.592
L112.857 279.459
L115.089 283.702
L117.321 323.595
L119.553 343.708
L121.785 296.092
L124.017 238.981
L126.249 257.328
L128.481 272.957
L130.713 273.882
L132.945 270.873
L135.177 269.691
L137.409 278.474
L139.641 281.303
L141.873 284.706
L144.105 289.734
L146.337 301.365
L148.569 327.993
L150.801 347.003
L153.033 340.834
L155.265 323.145
L157.497 313.992
L159.729 333.2
L161.961 343.941
L164.193 304.356
L166.425 285.715
L168.657 308.839
L170.889 354.379
L173.121 357.132
L175.353 356.629
L177.585 336.17
L179.817 325.212
L182.049 243.017
L184.281 187.116
L186.513 190.846
L188.745 222.937
L190.977 242.914
L193.209 277.206
L195.441 332.871
L197.673 346.956
L199.905 348.724
L202.137 350.118
L208.833 351.625
L215.529 351.548
L217.761 351.661
L219.993 352.28
L222.225 353.916
L224.457 354.798
L226.689 352.253
L228.921 342.985
L231.153 345.147
L233.385 347.569
L235.617 342.405
L237.849 352.872
L242.313 352.86
L244.545 352.081
L246.777 352.006
L249.009 351.802
L251.241 350.332
L253.473 348.123
L255.705 345.617
L257.937 349.975
L260.169 351.699
L262.401 359.366
L264.633 359.08
L266.865 358.907
L271.329 359.402
L273.561 356.336
L275.793 335.038
L278.025 321.265
L280.257 306.09
L282.489 280.537
L284.721 263.015
L286.953 227.223
L289.185 195.398
L291.417 171.3
L293.649 123.44
L295.881 97.8959
L298.113 79.3418
L300.345 67.0158
L302.577 81.2166
L304.809 88.8187
L307.041 98.2778
L309.273 79.7669
L311.505 63.9879
L313.737 77.551
L315.969 80.903
L318.201 79.2043
L320.433 64.1682
L322.665 36.0969
L324.897 27.1708
L327.129 23.1417
L329.361 37.0922
L331.593 81.6412
L333.825 110.436
L338.289 108.91
L340.521 108.662
L342.753 116.605
L344.985 131.703
L347.217 142.227
L349.449 243.283
L351.681 213.61
L353.913 264.499
L356.145 343.52
L358.377 358.089
L362.841 358.603
L367.305 359.283
L369.537 359.132
L374.001 354.775
L376.233 350.791
L378.465 341.466
L380.697 314.484
L382.929 296.563
L385.161 281.065
L387.393 241.991
L389.625 169.158
L391.857 134.062
L394.089 156.382
L396.321 206.675
L398.553 293.397
L400.785 313.88
L403.017 311.297
L405.249 300.324
L407.481 274.84
L409.713 265.518
L411.945 271.042
L414.177 262.58
L416.409 197.041
L418.641 110.54
L420.873 91.9424
L423.105 104.085
L425.337 160.867
L427.569 214.815
L429.801 240.577
L432.033 236.61
L434.265 226.244
L436.497 198.382
L438.729 187.815
L440.961 200.801
L443.193 210.45
L445.425 208.394
L447.657 201.169
L449.889 199.017
L452.121 201.447
L454.353 222.505
L456.585 168.488
L458.817 146.182
L461.049 195.716
L463.281 332.929
L465.513 358.635
L467.745 358.66
L469.977 358.923
L472.209 359.487
L474.441 359.81
L474.441 359.81" style="fill:none;stroke:#000000;stroke-dasharray:6.000000,6.000000;stroke-dashoffset:0.0;stroke-linecap:butt;"/>
   </g>
   <g id="matplotlib.axis_1">
    <g id="xtick_1">
     <g id="line2d_9">
      <defs>
       <path d="
M0 0
L0 -4" id="mcb557df647" style="stroke:#000000;stroke-linecap:butt;stroke-width:0.5;"/>
      </defs>
      <g>
       <use style="stroke:#000000;stroke-linecap:butt;stroke-width:0.5;" x="48.129375" xlink:href="#mcb557df647" y="368.74175"/>
      </g>
     </g>
     <g id="line2d_10">
      <defs>
       <path d="
M0 0
L0 4" id="mdad270ee8e" style="stroke:#000000;stroke-linecap:butt;stroke-width:0.5;"/>
      </defs>
      <g>
       <use style="stroke:#000000;stroke-linecap:butt;stroke-width:0.5;" x="48.129375" xlink:href="#mdad270ee8e" y="23.14175"/>
      </g>
     </g>
     <g id="text_1">
      <!-- 0 -->
      <defs>
       <path d="
M31.7812 66.4062
Q24.1719 66.4062 20.3281 58.9062
Q16.5 51.4219 16.5 36.375
Q16.5 21.3906 20.3281 13.8906
Q24.1719 6.39062 31.7812 6.39062
Q39.4531 6.39062 43.2812 13.8906
Q47.125 21.3906 47.125 36.375
Q47.125 51.4219 43.2812 58.9062
Q39.4531 66.4062 31.7812 66.4062
M31.7812 74.2188
Q44.0469 74.2188 50.5156 64.5156
Q56.9844 54.8281 56.9844 36.375
Q56.9844 17.9688 50.5156 8.26562
Q44.0469 -1.42188 31.7812 -1.42188
Q19.5312 -1.42188 13.0625 8.26562
Q6.59375 17.9688 6.59375 36.375
Q6.59375 54.8281 13.0625 64.5156
Q19.5312 74.2188 31.7812 74.2188" id="BitstreamVeraSans-Roman-30"/>
      </defs>
      <g style="fill:#ffffff;" transform="translate(45.1059375 381.648)scale(0.12 -0.12)">
       <use xlink:href="#BitstreamVeraSans-Roman-30"/>
      </g>
     </g>
    </g>
    <g id="xtick_2">
     <g id="line2d_11">
      <g>
       <use style="stroke:#000000;stroke-linecap:butt;stroke-width:0.5;" x="159.729375" xlink:href="#mcb557df647" y="368.74175"/>
      </g>
     </g>
     <g id="line2d_12">
      <g>
       <use style="stroke:#000000;stroke-linecap:butt;stroke-width:0.5;" x="159.729375" xlink:href="#mdad270ee8e" y="23.14175"/>
      </g>
     </g>
     <g id="text_2">
      <!-- 50 -->
      <defs>
       <path d="
M10.7969 72.9062
L49.5156 72.9062
L49.5156 64.5938
L19.8281 64.5938
L19.8281 46.7344
Q21.9688 47.4688 24.1094 47.8281
Q26.2656 48.1875 28.4219 48.1875
Q40.625 48.1875 47.75 41.5
Q54.8906 34.8125 54.8906 23.3906
Q54.8906 11.625 47.5625 5.09375
Q40.2344 -1.42188 26.9062 -1.42188
Q22.3125 -1.42188 17.5469 -0.640625
Q12.7969 0.140625 7.71875 1.70312
L7.71875 11.625
Q12.1094 9.23438 16.7969 8.0625
Q21.4844 6.89062 26.7031 6.89062
Q35.1562 6.89062 40.0781 11.3281
Q45.0156 15.7656 45.0156 23.3906
Q45.0156 31 40.0781 35.4375
Q35.1562 39.8906 26.7031 39.8906
Q22.75 39.8906 18.8125 39.0156
Q14.8906 38.1406 10.7969 36.2812
z
" id="BitstreamVeraSans-Roman-35"/>
      </defs>
      <g style="fill:#ffffff;" transform="translate(152.9559375 381.648)scale(0.12 -0.12)">
       <use xlink:href="#BitstreamVeraSans-Roman-35"/>
       <use x="63.623046875" xlink:href="#BitstreamVeraSans-Roman-30"/>
      </g>
     </g>
    </g>
    <g id="xtick_3">
     <g id="line2d_13">
      <g>
       <use style="stroke:#000000;stroke-linecap:butt;stroke-width:0.5;" x="271.329375" xlink:href="#mcb557df647" y="368.74175"/>
      </g>
     </g>
     <g id="line2d_14">
      <g>
       <use style="stroke:#000000;stroke-linecap:butt;stroke-width:0.5;" x="271.329375" xlink:href="#mdad270ee8e" y="23.14175"/>
      </g>
     </g>
     <g id="text_3">
      <!-- 100 -->
      <defs>
       <path d="
M12.4062 8.29688
L28.5156 8.29688
L28.5156 63.9219
L10.9844 60.4062
L10.9844 69.3906
L28.4219 72.9062
L38.2812 72.9062
L38.2812 8.29688
L54.3906 8.29688
L54.3906 0
L12.4062 0
z
" id="BitstreamVeraSans-Roman-31"/>
      </defs>
      <g style="fill:#ffffff;" transform="translate(260.934375 381.648)scale(0.12 -0.12)">
       <use xlink:href="#BitstreamVeraSans-Roman-31"/>
       <use x="63.623046875" xlink:href="#BitstreamVeraSans-Roman-30"/>
       <use x="127.24609375" xlink:href="#BitstreamVeraSans-Roman-30"/>
      </g>
     </g>
    </g>
    <g id="xtick_4">
     <g id="line2d_15">
      <g>
       <use style="stroke:#000000;stroke-linecap:butt;stroke-width:0.5;" x="382.929375" xlink:href="#mcb557df647" y="368.74175"/>
      </g>
     </g>
     <g id="line2d_16">
      <g>
       <use style="stroke:#000000;stroke-linecap:butt;stroke-width:0.5;" x="382.929375" xlink:href="#mdad270ee8e" y="23.14175"/>
      </g>
     </g>
     <g id="text_4">
      <!-- 150 -->
      <g style="fill:#ffffff;" transform="translate(372.534375 381.648)scale(0.12 -0.12)">
       <use xlink:href="#BitstreamVeraSans-Roman-31"/>
       <use x="63.623046875" xlink:href="#BitstreamVeraSans-Roman-35"/>
       <use x="127.24609375" xlink:href="#BitstreamVeraSans-Roman-30"/>
      </g>
     </g>
    </g>
    <g id="xtick_5">
     <g id="line2d_17">
      <g>
       <use style="stroke:#000000;stroke-linecap:butt;stroke-width:0.5;" x="494.529375" xlink:href="#mcb557df647" y="368.74175"/>
      </g>
     </g>
     <g id="line2d_18">
      <g>
       <use style="stroke:#000000;stroke-linecap:butt;stroke-width:0.5;" x="494.529375" xlink:href="#mdad270ee8e" y="23.14175"/>
      </g>
     </g>
     <g id="text_5">
      <!-- 200 -->
      <defs>
       <path d="
M19.1875 8.29688
L53.6094 8.29688
L53.6094 0
L7.32812 0
L7.32812 8.29688
Q12.9375 14.1094 22.625 23.8906
Q32.3281 33.6875 34.8125 36.5312
Q39.5469 41.8438 41.4219 45.5312
Q43.3125 49.2188 43.3125 52.7812
Q43.3125 58.5938 39.2344 62.25
Q35.1562 65.9219 28.6094 65.9219
Q23.9688 65.9219 18.8125 64.3125
Q13.6719 62.7031 7.8125 59.4219
L7.8125 69.3906
Q13.7656 71.7812 18.9375 73
Q24.125 74.2188 28.4219 74.2188
Q39.75 74.2188 46.4844 68.5469
Q53.2188 62.8906 53.2188 53.4219
Q53.2188 48.9219 51.5312 44.8906
Q49.8594 40.875 45.4062 35.4062
Q44.1875 33.9844 37.6406 27.2188
Q31.1094 20.4531 19.1875 8.29688" id="BitstreamVeraSans-Roman-32"/>
      </defs>
      <g style="fill:#ffffff;" transform="translate(483.915 381.648)scale(0.12 -0.12)">
       <use xlink:href="#BitstreamVeraSans-Roman-32"/>
       <use x="63.623046875" xlink:href="#BitstreamVeraSans-Roman-30"/>
       <use x="127.24609375" xlink:href="#BitstreamVeraSans-Roman-30"/>
      </g>
     </g>
    </g>
    <g id="text_6">
     <!-- Ranks -->
     <defs>
      <path d="
M54.8906 33.0156
L54.8906 0
L45.9062 0
L45.9062 32.7188
Q45.9062 40.4844 42.875 44.3281
Q39.8438 48.1875 33.7969 48.1875
Q26.5156 48.1875 22.3125 43.5469
Q18.1094 38.9219 18.1094 30.9062
L18.1094 0
L9.07812 0
L9.07812 54.6875
L18.1094 54.6875
L18.1094 46.1875
Q21.3438 51.125 25.7031 53.5625
Q30.0781 56 35.7969 56
Q45.2188 56 50.0469 50.1719
Q54.8906 44.3438 54.8906 33.0156" id="BitstreamVeraSans-Roman-6e"/>
      <path d="
M44.3906 34.1875
Q47.5625 33.1094 50.5625 29.5938
Q53.5625 26.0781 56.5938 19.9219
L66.6094 0
L56 0
L46.6875 18.7031
Q43.0625 26.0312 39.6719 28.4219
Q36.2812 30.8125 30.4219 30.8125
L19.6719 30.8125
L19.6719 0
L9.8125 0
L9.8125 72.9062
L32.0781 72.9062
Q44.5781 72.9062 50.7344 67.6719
Q56.8906 62.4531 56.8906 51.9062
Q56.8906 45.0156 53.6875 40.4688
Q50.4844 35.9375 44.3906 34.1875
M19.6719 64.7969
L19.6719 38.9219
L32.0781 38.9219
Q39.2031 38.9219 42.8438 42.2188
Q46.4844 45.5156 46.4844 51.9062
Q46.4844 58.2969 42.8438 61.5469
Q39.2031 64.7969 32.0781 64.7969
z
" id="BitstreamVeraSans-Roman-52"/>
      <path d="
M34.2812 27.4844
Q23.3906 27.4844 19.1875 25
Q14.9844 22.5156 14.9844 16.5
Q14.9844 11.7188 18.1406 8.90625
Q21.2969 6.10938 26.7031 6.10938
Q34.1875 6.10938 38.7031 11.4062
Q43.2188 16.7031 43.2188 25.4844
L43.2188 27.4844
z

M52.2031 31.2031
L52.2031 0
L43.2188 0
L43.2188 8.29688
Q40.1406 3.32812 35.5469 0.953125
Q30.9531 -1.42188 24.3125 -1.42188
Q15.9219 -1.42188 10.9531 3.29688
Q6 8.01562 6 15.9219
Q6 25.1406 12.1719 29.8281
Q18.3594 34.5156 30.6094 34.5156
L43.2188 34.5156
L43.2188 35.4062
Q43.2188 41.6094 39.1406 45
Q35.0625 48.3906 27.6875 48.3906
Q23 48.3906 18.5469 47.2656
Q14.1094 46.1406 10.0156 43.8906
L10.0156 52.2031
Q14.9375 54.1094 19.5781 55.0469
Q24.2188 56 28.6094 56
Q40.4844 56 46.3438 49.8438
Q52.2031 43.7031 52.2031 31.2031" id="BitstreamVeraSans-Roman-61"/>
      <path d="
M44.2812 53.0781
L44.2812 44.5781
Q40.4844 46.5312 36.375 47.5
Q32.2812 48.4844 27.875 48.4844
Q21.1875 48.4844 17.8438 46.4375
Q14.5 44.3906 14.5 40.2812
Q14.5 37.1562 16.8906 35.375
Q19.2812 33.5938 26.5156 31.9844
L29.5938 31.2969
Q39.1562 29.25 43.1875 25.5156
Q47.2188 21.7812 47.2188 15.0938
Q47.2188 7.46875 41.1875 3.01562
Q35.1562 -1.42188 24.6094 -1.42188
Q20.2188 -1.42188 15.4531 -0.5625
Q10.6875 0.296875 5.42188 2
L5.42188 11.2812
Q10.4062 8.6875 15.2344 7.39062
Q20.0625 6.10938 24.8125 6.10938
Q31.1562 6.10938 34.5625 8.28125
Q37.9844 10.4531 37.9844 14.4062
Q37.9844 18.0625 35.5156 20.0156
Q33.0625 21.9688 24.7031 23.7812
L21.5781 24.5156
Q13.2344 26.2656 9.51562 29.9062
Q5.8125 33.5469 5.8125 39.8906
Q5.8125 47.6094 11.2812 51.7969
Q16.75 56 26.8125 56
Q31.7812 56 36.1719 55.2656
Q40.5781 54.5469 44.2812 53.0781" id="BitstreamVeraSans-Roman-73"/>
      <path d="
M9.07812 75.9844
L18.1094 75.9844
L18.1094 31.1094
L44.9219 54.6875
L56.3906 54.6875
L27.3906 29.1094
L57.625 0
L45.9062 0
L18.1094 26.7031
L18.1094 0
L9.07812 0
z
" id="BitstreamVeraSans-Roman-6b"/>
     </defs>
     <g style="fill:#ffffff;" transform="translate(254.0971875 395.93675)scale(0.12 -0.12)">
      <use xlink:href="#BitstreamVeraSans-Roman-52"/>
      <use x="67.232421875" xlink:href="#BitstreamVeraSans-Roman-61"/>
      <use x="128.51171875" xlink:href="#BitstreamVeraSans-Roman-6e"/>
      <use x="191.890625" xlink:href="#BitstreamVeraSans-Roman-6b"/>
      <use x="249.80078125" xlink:href="#BitstreamVeraSans-Roman-73"/>
     </g>
    </g>
   </g>
   <g id="matplotlib.axis_2">
    <g id="ytick_1">
     <g id="line2d_19">
      <defs>
       <path d="
M0 0
L4 0" id="mc8fcea1516" style="stroke:#000000;stroke-linecap:butt;stroke-width:0.5;"/>
      </defs>
      <g>
       <use style="stroke:#000000;stroke-linecap:butt;stroke-width:0.5;" x="48.129375" xlink:href="#mc8fcea1516" y="368.74175"/>
      </g>
     </g>
     <g id="line2d_20">
      <defs>
       <path d="
M0 0
L-4 0" id="m0d5b0a6425" style="stroke:#000000;stroke-linecap:butt;stroke-width:0.5;"/>
      </defs>
      <g>
       <use style="stroke:#000000;stroke-linecap:butt;stroke-width:0.5;" x="494.529375" xlink:href="#m0d5b0a6425" y="368.74175"/>
      </g>
     </g>
     <g id="text_7">
      <!-- 0 -->
      <g style="fill:#ffffff;" transform="translate(38.0825 373.1095625)scale(0.12 -0.12)">
       <use xlink:href="#BitstreamVeraSans-Roman-30"/>
      </g>
     </g>
    </g>
    <g id="ytick_2">
     <g id="line2d_21">
      <g>
       <use style="stroke:#000000;stroke-linecap:butt;stroke-width:0.5;" x="48.129375" xlink:href="#mc8fcea1516" y="282.34175"/>
      </g>
     </g>
     <g id="line2d_22">
      <g>
       <use style="stroke:#000000;stroke-linecap:butt;stroke-width:0.5;" x="494.529375" xlink:href="#m0d5b0a6425" y="282.34175"/>
      </g>
     </g>
     <g id="text_8">
      <!-- 50 -->
      <g style="fill:#ffffff;" transform="translate(30.5825 286.7095625)scale(0.12 -0.12)">
       <use xlink:href="#BitstreamVeraSans-Roman-35"/>
       <use x="63.623046875" xlink:href="#BitstreamVeraSans-Roman-30"/>
      </g>
     </g>
    </g>
    <g id="ytick_3">
     <g id="line2d_23">
      <g>
       <use style="stroke:#000000;stroke-linecap:butt;stroke-width:0.5;" x="48.129375" xlink:href="#mc8fcea1516" y="195.94175"/>
      </g>
     </g>
     <g id="line2d_24">
      <g>
       <use style="stroke:#000000;stroke-linecap:butt;stroke-width:0.5;" x="494.529375" xlink:href="#m0d5b0a6425" y="195.94175"/>
      </g>
     </g>
     <g id="text_9">
      <!-- 100 -->
      <g style="fill:#ffffff;" transform="translate(23.339375 200.3095625)scale(0.12 -0.12)">
       <use xlink:href="#BitstreamVeraSans-Roman-31"/>
       <use x="63.623046875" xlink:href="#BitstreamVeraSans-Roman-30"/>
       <use x="127.24609375" xlink:href="#BitstreamVeraSans-Roman-30"/>
      </g>
     </g>
    </g>
    <g id="ytick_4">
     <g id="line2d_25">
      <g>
       <use style="stroke:#000000;stroke-linecap:butt;stroke-width:0.5;" x="48.129375" xlink:href="#mc8fcea1516" y="109.54175"/>
      </g>
     </g>
     <g id="line2d_26">
      <g>
       <use style="stroke:#000000;stroke-linecap:butt;stroke-width:0.5;" x="494.529375" xlink:href="#m0d5b0a6425" y="109.54175"/>
      </g>
     </g>
     <g id="text_10">
      <!-- 150 -->
      <g style="fill:#ffffff;" transform="translate(23.339375 113.9095625)scale(0.12 -0.12)">
       <use xlink:href="#BitstreamVeraSans-Roman-31"/>
       <use x="63.623046875" xlink:href="#BitstreamVeraSans-Roman-35"/>
       <use x="127.24609375" xlink:href="#BitstreamVeraSans-Roman-30"/>
      </g>
     </g>
    </g>
    <g id="ytick_5">
     <g id="line2d_27">
      <g>
       <use style="stroke:#000000;stroke-linecap:butt;stroke-width:0.5;" x="48.129375" xlink:href="#mc8fcea1516" y="23.14175"/>
      </g>
     </g>
     <g id="line2d_28">
      <g>
       <use style="stroke:#000000;stroke-linecap:butt;stroke-width:0.5;" x="494.529375" xlink:href="#m0d5b0a6425" y="23.14175"/>
      </g>
     </g>
     <g id="text_11">
      <!-- 200 -->
      <g style="fill:#ffffff;" transform="translate(22.900625 27.5095625)scale(0.12 -0.12)">
       <use xlink:href="#BitstreamVeraSans-Roman-32"/>
       <use x="63.623046875" xlink:href="#BitstreamVeraSans-Roman-30"/>
       <use x="127.24609375" xlink:href="#BitstreamVeraSans-Roman-30"/>
      </g>
     </g>
    </g>
    <g id="text_12">
     <!-- Runtime (s) -->
     <defs>
      <path id="BitstreamVeraSans-Roman-20"/>
      <path d="
M8.01562 75.875
L15.8281 75.875
Q23.1406 64.3594 26.7812 53.3125
Q30.4219 42.2812 30.4219 31.3906
Q30.4219 20.4531 26.7812 9.375
Q23.1406 -1.70312 15.8281 -13.1875
L8.01562 -13.1875
Q14.5 -2 17.7031 9.0625
Q20.9062 20.125 20.9062 31.3906
Q20.9062 42.6719 17.7031 53.6562
Q14.5 64.6562 8.01562 75.875" id="BitstreamVeraSans-Roman-29"/>
      <path d="
M52 44.1875
Q55.375 50.25 60.0625 53.125
Q64.75 56 71.0938 56
Q79.6406 56 84.2812 50.0156
Q88.9219 44.0469 88.9219 33.0156
L88.9219 0
L79.8906 0
L79.8906 32.7188
Q79.8906 40.5781 77.0938 44.375
Q74.3125 48.1875 68.6094 48.1875
Q61.625 48.1875 57.5625 43.5469
Q53.5156 38.9219 53.5156 30.9062
L53.5156 0
L44.4844 0
L44.4844 32.7188
Q44.4844 40.625 41.7031 44.4062
Q38.9219 48.1875 33.1094 48.1875
Q26.2188 48.1875 22.1562 43.5312
Q18.1094 38.875 18.1094 30.9062
L18.1094 0
L9.07812 0
L9.07812 54.6875
L18.1094 54.6875
L18.1094 46.1875
Q21.1875 51.2188 25.4844 53.6094
Q29.7812 56 35.6875 56
Q41.6562 56 45.8281 52.9688
Q50 49.9531 52 44.1875" id="BitstreamVeraSans-Roman-6d"/>
      <path d="
M9.42188 54.6875
L18.4062 54.6875
L18.4062 0
L9.42188 0
z

M9.42188 75.9844
L18.4062 75.9844
L18.4062 64.5938
L9.42188 64.5938
z
" id="BitstreamVeraSans-Roman-69"/>
      <path d="
M31 75.875
Q24.4688 64.6562 21.2812 53.6562
Q18.1094 42.6719 18.1094 31.3906
Q18.1094 20.125 21.3125 9.0625
Q24.5156 -2 31 -13.1875
L23.1875 -13.1875
Q15.875 -1.70312 12.2344 9.375
Q8.59375 20.4531 8.59375 31.3906
Q8.59375 42.2812 12.2031 53.3125
Q15.8281 64.3594 23.1875 75.875
z
" id="BitstreamVeraSans-Roman-28"/>
      <path d="
M56.2031 29.5938
L56.2031 25.2031
L14.8906 25.2031
Q15.4844 15.9219 20.4844 11.0625
Q25.4844 6.20312 34.4219 6.20312
Q39.5938 6.20312 44.4531 7.46875
Q49.3125 8.73438 54.1094 11.2812
L54.1094 2.78125
Q49.2656 0.734375 44.1875 -0.34375
Q39.1094 -1.42188 33.8906 -1.42188
Q20.7969 -1.42188 13.1562 6.1875
Q5.51562 13.8125 5.51562 26.8125
Q5.51562 40.2344 12.7656 48.1094
Q20.0156 56 32.3281 56
Q43.3594 56 49.7812 48.8906
Q56.2031 41.7969 56.2031 29.5938
M47.2188 32.2344
Q47.125 39.5938 43.0938 43.9844
Q39.0625 48.3906 32.4219 48.3906
Q24.9062 48.3906 20.3906 44.1406
Q15.875 39.8906 15.1875 32.1719
z
" id="BitstreamVeraSans-Roman-65"/>
      <path d="
M18.3125 70.2188
L18.3125 54.6875
L36.8125 54.6875
L36.8125 47.7031
L18.3125 47.7031
L18.3125 18.0156
Q18.3125 11.3281 20.1406 9.42188
Q21.9688 7.51562 27.5938 7.51562
L36.8125 7.51562
L36.8125 0
L27.5938 0
Q17.1875 0 13.2344 3.875
Q9.28125 7.76562 9.28125 18.0156
L9.28125 47.7031
L2.6875 47.7031
L2.6875 54.6875
L9.28125 54.6875
L9.28125 70.2188
z
" id="BitstreamVeraSans-Roman-74"/>
      <path d="
M8.5 21.5781
L8.5 54.6875
L17.4844 54.6875
L17.4844 21.9219
Q17.4844 14.1562 20.5 10.2656
Q23.5312 6.39062 29.5938 6.39062
Q36.8594 6.39062 41.0781 11.0312
Q45.3125 15.6719 45.3125 23.6875
L45.3125 54.6875
L54.2969 54.6875
L54.2969 0
L45.3125 0
L45.3125 8.40625
Q42.0469 3.42188 37.7188 1
Q33.4062 -1.42188 27.6875 -1.42188
Q18.2656 -1.42188 13.375 4.4375
Q8.5 10.2969 8.5 21.5781" id="BitstreamVeraSans-Roman-75"/>
     </defs>
     <g style="fill:#ffffff;" transform="translate(17.900625 228.617375)rotate(-90.0)scale(0.12 -0.12)">
      <use xlink:href="#BitstreamVeraSans-Roman-52"/>
      <use x="64.982421875" xlink:href="#BitstreamVeraSans-Roman-75"/>
      <use x="128.361328125" xlink:href="#BitstreamVeraSans-Roman-6e"/>
      <use x="191.740234375" xlink:href="#BitstreamVeraSans-Roman-74"/>
      <use x="230.94921875" xlink:href="#BitstreamVeraSans-Roman-69"/>
      <use x="258.732421875" xlink:href="#BitstreamVeraSans-Roman-6d"/>
      <use x="356.14453125" xlink:href="#BitstreamVeraSans-Roman-65"/>
      <use x="417.66796875" xlink:href="#BitstreamVeraSans-Roman-20"/>
      <use x="449.455078125" xlink:href="#BitstreamVeraSans-Roman-28"/>
      <use x="488.46875" xlink:href="#BitstreamVeraSans-Roman-73"/>
      <use x="540.568359375" xlink:href="#BitstreamVeraSans-Roman-29"/>
     </g>
    </g>
   </g>
   <g id="patch_3">
    <path d="
M48.1294 23.1417
L494.529 23.1417" style="fill:none;stroke:#000000;"/>
   </g>
   <g id="patch_4">
    <path d="
M494.529 368.742
L494.529 23.1417" style="fill:none;stroke:#000000;"/>
   </g>
   <g id="patch_5">
    <path d="
M48.1294 368.742
L494.529 368.742" style="fill:none;stroke:#000000;"/>
   </g>
   <g id="patch_6">
    <path d="
M48.1294 368.742
L48.1294 23.1417" style="fill:none;stroke:#000000;"/>
   </g>
   <g id="text_13">
    <!-- EVP halo update -->
    <defs>
     <path d="
M30.6094 48.3906
Q23.3906 48.3906 19.1875 42.75
Q14.9844 37.1094 14.9844 27.2969
Q14.9844 17.4844 19.1562 11.8438
Q23.3438 6.20312 30.6094 6.20312
Q37.7969 6.20312 41.9844 11.8594
Q46.1875 17.5312 46.1875 27.2969
Q46.1875 37.0156 41.9844 42.7031
Q37.7969 48.3906 30.6094 48.3906
M30.6094 56
Q42.3281 56 49.0156 48.375
Q55.7188 40.7656 55.7188 27.2969
Q55.7188 13.875 49.0156 6.21875
Q42.3281 -1.42188 30.6094 -1.42188
Q18.8438 -1.42188 12.1719 6.21875
Q5.51562 13.875 5.51562 27.2969
Q5.51562 40.7656 12.1719 48.375
Q18.8438 56 30.6094 56" id="BitstreamVeraSans-Roman-6f"/>
     <path d="
M9.42188 75.9844
L18.4062 75.9844
L18.4062 0
L9.42188 0
z
" id="BitstreamVeraSans-Roman-6c"/>
     <path d="
M19.6719 64.7969
L19.6719 37.4062
L32.0781 37.4062
Q38.9688 37.4062 42.7188 40.9688
Q46.4844 44.5312 46.4844 51.125
Q46.4844 57.6719 42.7188 61.2344
Q38.9688 64.7969 32.0781 64.7969
z

M9.8125 72.9062
L32.0781 72.9062
Q44.3438 72.9062 50.6094 67.3594
Q56.8906 61.8125 56.8906 51.125
Q56.8906 40.3281 50.6094 34.8125
Q44.3438 29.2969 32.0781 29.2969
L19.6719 29.2969
L19.6719 0
L9.8125 0
z
" id="BitstreamVeraSans-Roman-50"/>
     <path d="
M9.8125 72.9062
L55.9062 72.9062
L55.9062 64.5938
L19.6719 64.5938
L19.6719 43.0156
L54.3906 43.0156
L54.3906 34.7188
L19.6719 34.7188
L19.6719 8.29688
L56.7812 8.29688
L56.7812 0
L9.8125 0
z
" id="BitstreamVeraSans-Roman-45"/>
     <path d="
M54.8906 33.0156
L54.8906 0
L45.9062 0
L45.9062 32.7188
Q45.9062 40.4844 42.875 44.3281
Q39.8438 48.1875 33.7969 48.1875
Q26.5156 48.1875 22.3125 43.5469
Q18.1094 38.9219 18.1094 30.9062
L18.1094 0
L9.07812 0
L9.07812 75.9844
L18.1094 75.9844
L18.1094 46.1875
Q21.3438 51.125 25.7031 53.5625
Q30.0781 56 35.7969 56
Q45.2188 56 50.0469 50.1719
Q54.8906 44.3438 54.8906 33.0156" id="BitstreamVeraSans-Roman-68"/>
     <path d="
M28.6094 0
L0.78125 72.9062
L11.0781 72.9062
L34.1875 11.5312
L57.3281 72.9062
L67.5781 72.9062
L39.7969 0
z
" id="BitstreamVeraSans-Roman-56"/>
     <path d="
M45.4062 46.3906
L45.4062 75.9844
L54.3906 75.9844
L54.3906 0
L45.4062 0
L45.4062 8.20312
Q42.5781 3.32812 38.25 0.953125
Q33.9375 -1.42188 27.875 -1.42188
Q17.9688 -1.42188 11.7344 6.48438
Q5.51562 14.4062 5.51562 27.2969
Q5.51562 40.1875 11.7344 48.0938
Q17.9688 56 27.875 56
Q33.9375 56 38.25 53.625
Q42.5781 51.2656 45.4062 46.3906
M14.7969 27.2969
Q14.7969 17.3906 18.875 11.75
Q22.9531 6.10938 30.0781 6.10938
Q37.2031 6.10938 41.2969 11.75
Q45.4062 17.3906 45.4062 27.2969
Q45.4062 37.2031 41.2969 42.8438
Q37.2031 48.4844 30.0781 48.4844
Q22.9531 48.4844 18.875 42.8438
Q14.7969 37.2031 14.7969 27.2969" id="BitstreamVeraSans-Roman-64"/>
     <path d="
M18.1094 8.20312
L18.1094 -20.7969
L9.07812 -20.7969
L9.07812 54.6875
L18.1094 54.6875
L18.1094 46.3906
Q20.9531 51.2656 25.2656 53.625
Q29.5938 56 35.5938 56
Q45.5625 56 51.7812 48.0938
Q58.0156 40.1875 58.0156 27.2969
Q58.0156 14.4062 51.7812 6.48438
Q45.5625 -1.42188 35.5938 -1.42188
Q29.5938 -1.42188 25.2656 0.953125
Q20.9531 3.32812 18.1094 8.20312
M48.6875 27.2969
Q48.6875 37.2031 44.6094 42.8438
Q40.5312 48.4844 33.4062 48.4844
Q26.2656 48.4844 22.1875 42.8438
Q18.1094 37.2031 18.1094 27.2969
Q18.1094 17.3906 22.1875 11.75
Q26.2656 6.10938 33.4062 6.10938
Q40.5312 6.10938 44.6094 11.75
Q48.6875 17.3906 48.6875 27.2969" id="BitstreamVeraSans-Roman-70"/>
    </defs>
    <g style="fill:#ffffff;" transform="translate(212.5695 18.14175)scale(0.144 -0.144)">
     <use xlink:href="#BitstreamVeraSans-Roman-45"/>
     <use x="63.18359375" xlink:href="#BitstreamVeraSans-Roman-56"/>
     <use x="131.591796875" xlink:href="#BitstreamVeraSans-Roman-50"/>
     <use x="191.89453125" xlink:href="#BitstreamVeraSans-Roman-20"/>
     <use x="223.681640625" xlink:href="#BitstreamVeraSans-Roman-68"/>
     <use x="287.060546875" xlink:href="#BitstreamVeraSans-Roman-61"/>
     <use x="348.33984375" xlink:href="#BitstreamVeraSans-Roman-6c"/>
     <use x="376.123046875" xlink:href="#BitstreamVeraSans-Roman-6f"/>
     <use x="437.3046875" xlink:href="#BitstreamVeraSans-Roman-20"/>
     <use x="469.091796875" xlink:href="#BitstreamVeraSans-Roman-75"/>
     <use x="532.470703125" xlink:href="#BitstreamVeraSans-Roman-70"/>
     <use x="595.947265625" xlink:href="#BitstreamVeraSans-Roman-64"/>
     <use x="659.423828125" xlink:href="#BitstreamVeraSans-Roman-61"/>
     <use x="720.703125" xlink:href="#BitstreamVeraSans-Roman-74"/>
     <use x="759.912109375" xlink:href="#BitstreamVeraSans-Roman-65"/>
    </g>
   </g>
  </g>
 </g>
 <defs>
  <clipPath id="p900992f6f0">
   <rect height="345.6" width="446.4" x="48.129375" y="23.14175"/>
  </clipPath>
 </defs>
</svg>
